<svg width="189.010200" height="300.000000">
    <rect x="0.000000" y="0.000000" width="38.855300" height="100.000000" style="fill:rgb(0,0,255);opacity:0.9" />
    <rect x="38.888600" y="0.000000" width="3.566000" height="100.000000" style="fill:rgb(0,255,0);opacity:0.9" />
    <rect x="42.468700" y="0.000000" width="0.152100" height="100.000000" style="fill:rgb(255,0,0);opacity:0.9" />
    <rect x="42.631000" y="0.000000" width="3.877700" height="100.000000" style="fill:rgb(0,255,255);opacity:0.9" />
    <rect x="46.523600" y="0.000000" width="3.801000" height="100.000000" style="fill:rgb(255,0,255);opacity:0.9" />
    <rect x="50.802700" y="100.000000" width="43.797800" height="100.000000" style="fill:rgb(0,0,255);opacity:0.9" />
    <rect x="94.613000" y="100.000000" width="17.428000" height="100.000000" style="fill:rgb(0,255,0);opacity:0.9" />
    <rect x="112.053000" y="100.000000" width="0.116900" height="100.000000" style="fill:rgb(255,0,0);opacity:0.9" />
    <rect x="112.183700" y="100.000000" width="8.707900" height="100.000000" style="fill:rgb(0,255,255);opacity:0.9" />
    <rect x="120.908800" y="100.000000" width="8.267700" height="100.000000" style="fill:rgb(255,0,255);opacity:0.9" />
    <rect x="129.428200" y="200.000000" width="36.115800" height="100.000000" style="fill:rgb(0,0,255);opacity:0.9" />
    <rect x="165.559800" y="200.000000" width="16.272400" height="100.000000" style="fill:rgb(0,255,0);opacity:0.9" />
    <rect x="181.843400" y="200.000000" width="0.127700" height="100.000000" style="fill:rgb(255,0,0);opacity:0.9" />
    <rect x="181.986000" y="200.000000" width="5.289300" height="100.000000" style="fill:rgb(0,255,255);opacity:0.9" />
    <rect x="187.291900" y="200.000000" width="1.718300" height="100.000000" style="fill:rgb(255,0,255);opacity:0.9" />
</svg>
